<?xml version="1.0" encoding="utf-8"?>
<!-- Generator: Adobe Illustrator 23.1.1, SVG Export Plug-In . SVG Version: 6.00 Build 0)  -->
<svg version="1.1" id="Layer_1" xmlns="http://www.w3.org/2000/svg" xmlns:xlink="http://www.w3.org/1999/xlink" x="0px" y="0px"
	 viewBox="0 0 532.83 532.83" style="enable-background:new 0 0 532.83 532.83;" xml:space="preserve">
<style type="text/css">
	.st0{fill:#FFFFFF;}
	.st1{fill:#D3E3E3;}
	.st2{fill:#ABCCCC;}
	.st3{fill:#E4EDED;}
	.st4{fill:#54AAC7;}
	.st5{fill:#2188A3;}
	.st6{opacity:0.36;fill:#3C7A8F;}
	.st7{fill:#3C7A8F;}
	.st8{fill:#134E68;}
</style>
<path class="st0" d="M35.01,289.06c80.4-213.53,351.9-211.56,445.98-33.49c48.01,90.87,1.54,153.48-55.48,193.01
	C370.8,486.51-45.39,502.6,35.01,289.06z"/>
<g>
	<path class="st1" d="M64.27,132.31c2.72-2.12,5.41-4.28,8.12-6.42c1.03-0.81,2.19-1.13,3.5-1.01c2.07,0.19,3.22,1.41,2.88,3.45
		c-0.5,3.05,0.09,5.91,1.06,8.75c0.53,1.54,1.11,3.07,1.81,4.54c2.87,5.98,6.32,11.62,10.4,16.86c7.25,9.31,15.93,17.08,25.67,23.7
		c2.46,1.67,5,3.2,7.68,4.49c0.14,0.07,0.4,0.03,0.52-0.06c0.12-0.09,0.21-0.33,0.17-0.47c-0.34-1.4-0.74-2.78-1.05-4.18
		c-1.08-4.98-1.02-9.91,0.85-14.7c1.55-3.95,3.66-7.61,6.4-10.85c1.69-2,1.63-1.78,0.21-3.82c-5.02-7.19-9.03-14.91-12.08-23.14
		c-1.8-4.86-3.48-9.75-4.87-14.74c-3.07-10.99-5.67-22.09-7.54-33.35c-1.25-7.49-1.82-15.03-1.1-22.62
		c0.36-3.74,1.04-7.4,2.44-10.91c1.13-2.81,2.76-5.23,5.07-7.22c4.72-4.08,10.15-5.57,16.3-4.67c5.16,0.76,10.07,2.29,14.82,4.44
		c9.49,4.3,18,10.19,26.29,16.38c3.84,2.86,7.47,6,11.14,9.08c4.26,3.57,8.32,7.37,12.04,11.52c0.45,0.5,0.9,0.99,1.38,1.46
		c0.3,0.3,0.68,0.37,1.03,0.11c0.46-0.34,0.9-0.71,1.33-1.09c2.11-1.82,4.41-3.38,6.82-4.79c2.45-1.43,5.1-2.21,7.96-2.01
		c0.99,0.07,1.88-0.06,2.8-0.4c4.39-1.61,8.66-1.2,12.83,0.81c1.47,0.71,2.88,1.52,4.21,2.47c0.53,0.38,1.08,0.74,1.59,1.1
		c3.72-3.59,5.52-4.64,10.62-6.19c1.19-0.36,2.4-0.67,3.61-0.97c5.9-1.51,11.9-1.89,17.96-1.79c5.64,0.09,11.04,1.11,16.2,3.4
		c5.04,2.24,9.66,5.06,13.48,9.12c4.66,4.97,8.23,10.57,10.28,17.11c0.28,0.89,0.43,1.86,1.09,2.66c0.32-0.12,0.61-0.16,0.81-0.32
		c2.96-2.43,6.44-3.76,10.08-4.73c5.29-1.42,10.66-2.43,16.1-2.93c8.99-0.83,17.63,0.83,25.7,4.76
		c10.3,5.03,18.15,12.75,23.32,23.02c3.34,6.62,5.01,13.65,4.52,21.12c-0.09,1.43-0.18,2.87-0.28,4.3
		c-0.04,0.69,0.27,1.09,0.96,1.15c1.72,0.13,3.42,0.34,5.08,0.9c3.39,1.13,6.56,2.68,9.47,4.76c4,2.85,7.59,6.15,10.77,9.9
		c1.68,1.98,3.11,4.13,4.32,6.43c3.66,6.95,5.12,14.4,5.05,22.19c-0.03,3.2-0.62,6.28-1.78,9.26c-0.73,1.88-1.6,3.69-2.63,5.43
		c-1.17,1.98-2.4,3.92-3.63,5.86c-0.95,1.51-0.96,1.5,0.2,2.95c0.12,0.15,0.24,0.3,0.37,0.44c3.29,3.81,5.79,8.1,7.76,12.72
		c1.46,3.44,2.77,6.95,3.68,10.58c0.3,1.2,0.95,1.77,2.13,1.98c1.62,0.3,3.23,0.45,4.86,0.24c8.39-1.06,14.43-5.28,17.75-13.18
		c2.35-5.59,3.94-11.41,5.39-17.27c1.17-4.75,1.8-9.6,2.13-14.49c0.05-0.76,0.17-1.52,0.3-2.28c0.37-2.31,2.68-3.23,4.56-2.28
		c3.76,1.89,7.65,3.54,11.46,5.34c1.47,0.69,2.89,1.5,4.31,2.29c2.13,1.19,3.15,3.12,3.14,5.46c-0.02,5.67-0.56,11.28-2.27,16.75
		c-1.67,5.33-3.97,10.38-6.53,15.32c-2.94,5.66-6.7,10.71-11.61,14.86c-3.15,2.66-6.45,5.13-9.82,7.51
		c-3.17,2.25-6.66,3.75-10.37,4.84c-4.1,1.21-8.29,1.52-12.52,1.22c-1.9-0.14-1.99,0.15-2.3,1.7c-0.19,0.94-0.39,1.88-0.6,2.81
		c-0.74,3.32-2.06,6.4-4.03,9.15c-4.76,6.65-10.76,11.41-19.22,12.32c-0.29,0.03-0.57,0.06-0.86,0.11c-1.26,0.23-1.47,0.37-1.5,1.67
		c-0.07,2.7-0.48,5.35-1.19,7.94c-1.11,4.07-2.15,8.16-3.39,12.19c-2.94,9.54-7.58,18-15.92,23.97c-0.74,0.53-0.74,0.8-0.2,1.69
		c0.89,1.5,2.05,2.78,3.4,3.87c1.64,1.32,3.27,2.67,4.98,3.89c6.12,4.38,12.75,7.33,20.46,7.45c5.01,0.08,9.96-0.08,14.79-1.59
		c2.2-0.69,4.41-1.32,6.6-2.02c2.83-0.91,5.66-1.78,8.43-2.86c1.94-0.76,3.4,0.16,3.9,2.16c0.05,0.19,0.08,0.38,0.1,0.57
		c0.16,1.83,0.7,3.57,1.2,5.32c1.24,4.33,2.5,8.66,3.74,12.99c0.21,0.73,0.46,1.47,0.53,2.23c0.18,1.73-0.61,2.99-2.21,3.63
		c-0.53,0.21-1.1,0.34-1.66,0.46c-2.16,0.43-4.32,0.92-6.49,1.24c-11.11,1.62-22.26,2.45-33.52,1.75
		c-9.55-0.6-18.78-2.42-27.79-5.65c-8.98-3.22-16.88-8.17-24.02-14.39c-6.41-5.59-11.65-12.17-15.75-19.65
		c-0.78-1.43-1.65-2.81-2.49-4.2c-0.25-0.42-0.57-0.78-1.22-0.75c-0.2,0.37-0.48,0.76-0.64,1.2c-1.6,4.34-3.96,8.29-6.29,12.26
		c-2.88,4.94-6.65,9.12-10.98,12.83c-3.03,2.6-6.43,4.48-10.15,5.87c-6.13,2.29-12.51,2.72-18.96,2.58
		c-1.72-0.04-3.45-0.16-5.13-0.61c-8.15-2.17-15.33-5.99-20.99-12.36c-4.42-4.98-8.05-10.49-10.67-16.63
		c-0.19-0.44-0.35-0.89-0.56-1.33c-0.49-1.05-0.89-1.18-1.67-0.42c-1.45,1.41-2.96,2.73-4.68,3.79c-5.21,3.2-10.86,4.65-16.97,4.58
		c-6.25-0.06-11.86-1.86-16.87-5.63c-2.77-2.09-5.43-4.28-7.49-7.09c-0.69-0.94-1.4-1.08-2.44-0.77c-1.75,0.51-3.57,0.69-5.39,0.76
		c-7.14,0.29-13.91-1.52-20.47-3.97c-6.71-2.51-12.55-6.55-17.79-11.43c-2.81-2.62-5.48-5.38-7.79-8.45
		c-0.91-1.21-1.82-2.24-3.52-1.82c-4.59-0.64-9.06-1.72-13.16-3.92c-3.46-1.85-6.89-3.79-10.12-6.03
		c-10.55-7.33-20.91-14.91-31.05-22.79c-4.7-3.65-9.19-7.54-13.25-11.9c-1.37-1.47-2.8-2.89-4.2-4.34
		c-5.06-5.25-9.91-10.69-14.24-16.56c-2.34-3.17-4.47-6.46-6.36-9.92c-1.04-1.9-0.86-3.67,0.33-5.4c0.49-0.71,1.08-1.36,1.47-2.12
		c2.06-4,4.77-7.65,6.64-11.76c0.4-0.88,0.97-1.65,1.74-2.26c2.08-1.64,4-1.23,5.13,1.16c0.57,1.21,1.02,2.48,1.56,3.71
		c4.46,10.08,11.02,18.59,19.38,25.74c4.81,4.11,10,7.74,15.15,11.42c3.9,2.79,8.09,5.13,12.52,7.02c0.77,0.33,1.51,0.84,2.44,0.63
		c0.02-0.11,0.06-0.2,0.05-0.29c-0.07-0.82-0.66-1.36-1.08-1.97c-7.39-10.89-9.87-22.93-8.26-35.87c0.17-1.37-0.22-2.12-1.26-2.87
		c-3.6-2.58-6.76-5.66-9.7-8.95c-3.13-3.51-6.18-7.08-9.29-10.59c-5.36-6.06-9.81-12.77-13.81-19.78
		c-4.25-7.44-7.13-15.48-9.95-23.54c-1.79-5.1-2.41-10.45-3.46-15.7C62.12,134.95,62.77,133.48,64.27,132.31z"/>
	<path class="st2" d="M409.05,212.52c0,0,12.29,37.02-19.9,46.67c0,0-0.25,53.3-58.06,27.45c0,0-25.9,58.87-68.4,13.45
		c0,0-29.32,44.23-59.58-10.08c0,0-29.1,30.3-51.2-28.32c0,0-39.58-10.62-35.76-50.63c0,0-15.2,30.48,23.54,58.57
		c0,0-8.61,51.22,59.26,56.83l6.1-0.95c0,0,15.95,26.48,44.82,1.66c0,0,7.75,32.66,40.2,35.27s44.13-38.64,44.13-38.64
		s27.9,22.14,46.65,8.79c18.74-13.34,18.72-45.2,18.72-45.2s27.99-0.39,27.91-31.43C427.4,224.92,412.84,212.24,409.05,212.52z"/>
	<path class="st3" d="M252.46,131.3c-0.62,0.42-15.28,15.79-19.17-6.37c0,0-23.11-11.38-15.51-21.39c0,0-15.65-10.98-10.05-24.74
		c5.6-13.76-10.56,6-10.56,6l14.67,25.27c0,0-5.05,13.88,12.96,17.95c0,0-19.03,28.51-1.77,33.69
		C240.29,166.9,252.46,131.3,252.46,131.3z"/>
	<g>
		<path class="st4" d="M161.38,169.15c5.76-0.18,10.47-2.38,13.34-7.55c2.85-5.12,3.72-10.62,2.34-16.39
			c-0.15-0.65-0.33-1.31-0.63-1.9c-0.62-1.22-1.9-1.78-3.12-1.47c-1.13,0.29-1.98,1.23-2.05,2.48c-0.04,0.75,0.06,1.53,0.24,2.27
			c0.88,3.7,0.29,7.25-1.05,10.7c-1.56,4.02-5.14,6.25-9.48,6.06c-1.35-0.06-2.67-0.27-3.97-0.61c-3.93-1.02-7.49-2.91-11.03-4.8
			c-1.28-0.69-2.3-1.72-3.26-2.79c-0.89-1-1.73-2.05-2.59-3.08c-0.43-0.51-0.78-1.16-1.31-1.51c-1.41-0.94-2.25-2.32-3.15-3.67
			c-3.14-4.72-5.83-9.69-8.01-14.92c-1.88-4.52-3.55-9.11-5-13.78c-3.78-12.18-6.65-24.59-8.82-37.16
			c-1.27-7.39-1.87-14.81-1.12-22.31c0.32-3.18,0.88-6.29,2.19-9.18c2.26-4.95,6.17-7.69,11.65-8.03c3.5-0.22,6.88,0.57,10.17,1.63
			c5.3,1.71,10.33,4.08,15.1,6.96c12.1,7.31,23.18,15.97,33.52,25.59c3.72,3.46,7.27,7.13,10.22,11.27
			c4.58,6.4,8.62,13.14,12.08,20.22c1.1,2.26,1.74,4.54,1.72,7.14c-0.06,6.47,3.09,11.08,8.84,13.95c0.68,0.34,1.37,0.66,2.19,1.06
			c-0.93,1.2-1.89,2.27-2.67,3.45c-2.04,3.06-3.4,6.43-4.41,9.94c-0.82,2.86-1.27,5.8-1.16,8.8c0.18,4.8,2.05,8.7,6.02,11.51
			c0.31,0.22,0.65,0.4,0.97,0.61c0.55,0.37,0.66,0.88,0.48,1.5c-0.41,1.4-1.07,2.66-1.96,3.81c-2.24,2.9-4.86,5.43-7.8,7.59
			c-0.84,0.62-1.77,1.18-2.74,1.56c-5.02,1.99-10.23,3.25-15.64,3.41c-5.51,0.16-10.87-0.79-16.1-2.54
			c-6.04-2.02-11.69-4.79-16.81-8.59c-0.44-0.33-0.99-0.58-1.12-1.38C158.78,169.06,160.08,169.19,161.38,169.15z M191.48,138.52
			c0.49,0.59,1.03,1.13,1.58,1.67c1.53,1.48,1.54,1.47,0.49,3.19c-0.25,0.41-0.54,0.8-0.7,1.24c-0.46,1.26-0.03,2.56,1.02,3.31
			c1.14,0.81,2.65,0.7,3.7-0.29c0.28-0.26,0.5-0.58,0.72-0.89c0.66-0.94,1.32-1.88,1.97-2.83c1.58-2.3,1.32-4.25-0.83-6.04
			c-0.66-0.55-1.38-1.03-2.04-1.58c-2.97-2.49-3.69-5.03-2.49-8.7c0.6-1.84,1.39-3.56,2.73-5c0.45-0.49,0.85-1.04,0.98-1.73
			c0.37-2-1.74-3.8-3.66-3.1c-1.12,0.41-1.91,1.25-2.61,2.18c-1.81,2.42-2.77,5.22-3.6,7.89
			C188.06,131.95,188.96,135.46,191.48,138.52z M185.55,110.45c0.75,0.8,1.68,1.24,2.78,1.28c1.18,0.04,2.25-0.62,2.74-1.7
			c0.48-1.07,0.27-2.04-0.43-2.93c-0.12-0.15-0.26-0.29-0.41-0.39c-1.78-1.24-1.62-2.83-0.84-4.55c0.43-0.97,0.98-1.84,1.65-2.66
			c0.36-0.44,0.74-0.89,0.98-1.39c0.51-1.06,0.21-2.37-0.65-3.14c-0.86-0.76-1.86-0.98-2.92-0.53c-0.51,0.22-1.02,0.56-1.4,0.96
			c-1.97,2.03-3.19,4.48-3.78,6.57C182.57,105.62,183.44,108.22,185.55,110.45z M127.51,48.26c-1.52-0.26-3.04,0.84-3.34,2.39
			c-0.32,1.67,0.78,3.42,2.32,3.7c1.5,0.27,2.98-0.81,3.31-2.43C130.16,50.2,129.12,48.54,127.51,48.26z"/>
		<path class="st4" d="M73.35,229.44c-0.82,0.62-1.12,1.56-1.58,2.38c-1.12,2.01-2.21,4.03-3.52,5.92
			c-0.93,1.35-0.91,1.53,0.12,2.75c3.14,3.74,6.53,7.27,9.82,10.88c7.92,8.68,17.05,15.95,26.51,22.84
			c6.81,4.96,13.5,10.1,20.51,14.77c3.03,2.01,6.18,3.84,9.35,5.62c2.09,1.18,4.38,1.93,6.7,2.52c0.35,0.09,0.72,0.24,1.07-0.06
			c0.29-0.63-0.18-1.08-0.43-1.56c-2.4-4.65-3.75-9.61-4.54-14.76c-0.38-2.49-0.24-4.97,0.01-7.45c0.09-0.85-0.03-1.41-0.85-1.88
			c-2.99-1.72-5.89-3.58-8.55-5.8c-0.29-0.24-0.63-0.49-0.98-0.57c-2.25-0.5-4.29-1.67-6.6-1.95c-1.24-0.15-2.4-0.61-3.57-1.06
			c-5.39-2.08-10.46-4.79-15.17-8.09c-5.57-3.9-11.06-7.92-16.32-12.23c-3.72-3.06-6.94-6.59-10-10.28
			C74.74,230.71,74.33,229.78,73.35,229.44z"/>
		<path class="st5" d="M344.88,334.32c-0.14,0.6,0.2,0.97,0.45,1.37c3.62,5.69,7.85,10.89,13,15.26c6.54,5.55,13.68,10.09,21.84,13
			c6.17,2.2,12.44,3.94,18.92,4.7c7.99,0.93,16.03,1.29,24.08,0.59c1.14-0.1,2.29-0.17,3.43-0.29c0.77-0.08,1.03-0.41,0.96-1.1
			c-0.02-0.19-0.06-0.38-0.09-0.57c-0.63-3.48-1.26-6.97-1.91-10.45c-0.17-0.94-0.47-1.17-1.37-0.95
			c-5.66,1.36-11.4,1.28-17.14,0.84c-2.77-0.21-5.47-0.83-8.11-1.79c-6.96-2.52-12.9-6.65-18.41-11.49
			c-1.67-1.47-2.94-3.27-4.1-5.15c-0.67-1.08-0.72-1.11-1.82-0.81c-5.2,1.39-10.45,1.12-15.69,0.45c-4.57-0.59-9.04-1.65-13.29-3.53
			C345.42,334.29,345.13,334.34,344.88,334.32z"/>
		<path class="st4" d="M77.23,146.48c-0.91,0.94-1.85,1.89-2.74,2.88c-0.31,0.34-0.52,0.8-0.68,1.24c-0.16,0.45-0.08,1.01-0.32,1.39
			c-1.06,1.67-0.48,3.21,0.11,4.87c4.02,11.52,9.87,22.04,17.44,31.56c4.71,5.93,9.74,11.59,14.98,17.06
			c1.59,1.66,3.31,3.17,5.35,4.66c0.99-2.32,1.84-4.53,2.85-6.65c1.03-2.17,2.54-4.05,4.1-5.88c1.55-1.82,3.29-3.46,5.13-4.91
			c-0.31-0.87-0.99-1.04-1.55-1.35c-13.24-7.34-24.49-17.04-33.97-28.82c-3.62-4.5-6.6-9.41-9.45-14.41
			C78.15,147.56,77.96,146.89,77.23,146.48z"/>
		<path class="st5" d="M429.78,244.19c0.05,3.01,0.1,5.87,0.14,8.72c0.01,0.76-0.07,1.53-0.09,2.3c-0.02,1.04,0.24,1.36,1.32,1.45
			c6.59,0.5,12.8-0.78,18.4-4.35c3.88-2.48,7.52-5.3,10.98-8.34c4.01-3.52,7.11-7.76,9.57-12.47c1.73-3.31,3.35-6.67,4.7-10.16
			c0.76-1.96,0.79-2.06-1.09-3.19c-2.13-1.28-4.33-2.45-6.51-3.65c-1.09-0.6-2.19-1.19-3.3-1.74c-0.51-0.25-0.95-0.07-1.12,0.49
			c-0.58,1.92-1.19,3.84-1.7,5.79c-0.74,2.79-1.76,5.47-2.86,8.12c-4.37,10.52-12.44,15.92-23.59,17.02
			C433.05,244.33,431.42,244.19,429.78,244.19z"/>
		<path class="st4" d="M230.01,162.38c0.85,0.65,1.64,0.6,2.35,0.75c3.98,0.8,7.7,2.31,11.26,4.21c3,1.6,5.34,4.02,7.58,6.53
			c0.59,0.66,0.95,1.44,1.05,2.32c0.13,1.18-0.49,2.29-1.56,2.83c-1.1,0.55-2.26,0.39-3.15-0.54c-1.06-1.1-2.05-2.27-3.11-3.38
			c-0.93-0.97-1.96-1.84-3.14-2.49c-3.37-1.85-6.9-3.33-10.72-3.96c-0.57-0.09-1.15-0.23-1.71-0.19c-0.74,0.05-1.69-0.15-2.15,0.47
			c-0.55,0.76,0.29,1.43,0.67,2.02c4.78,7.66,11.34,13.15,19.96,16.03c2.28,0.76,4.64,1.2,7.07,1c1.16-0.09,2.32-0.29,3.3-0.89
			c3.85-2.36,6.19-5.64,6-10.37c-0.18-4.4-2.33-7.86-5.35-10.8c-3.77-3.67-8.39-5.66-13.64-6.03c-3.45-0.25-6.88-0.01-10.3,0.58
			C232.88,160.73,231.45,161.2,230.01,162.38z"/>
	</g>
	<path class="st6" d="M218.96,160.98c0,0-23.33,19.82-50.12,1.12c-26.79-18.69-61.73-107.24-53.33-118.76
		c0,0-23.18,35.76,22.92,111.72c0,0,9.01,23.92,53.69,27.66c0,0,23.06,1.64,29.71-17.21L218.96,160.98z"/>
	<path class="st7" d="M127.91,191.79c-0.1,0.52-16.33,21.16-16.33,21.16l-13.11-12.6l13.53-15.98L127.91,191.79z"/>
	<path class="st7" d="M140.55,269.81c-0.15,0.75,5.17,31.17,5.17,31.17s-17.85-4.96-21.97-10.4c-4.11-5.44-4.87-29.98-4.87-29.98
		l8.66,0.62L140.55,269.81z"/>
	<path class="st7" d="M442.8,240.48c-0.1,0.52-0.42,17.65-0.42,17.65l-14.86-0.05l-0.05-17.57L442.8,240.48z"/>
	<path class="st7" d="M386.44,346.05l-22.43,12.98c0,0-20.24-16.51-21.07-26.88l33.29,2.95L386.44,346.05z"/>
	<path class="st7" d="M257.71,164.22c0,0-22.25-2.57-13.13,12.47c9.11,15.05,12.08,13.59,12.08,13.59s-11.89,2.71-23.03-6.78
		c-11.14-9.49-9.82-17.51-9.82-17.51l13.88-9.21C237.68,156.78,255.61,158.79,257.71,164.22z"/>
	<g>
		<path class="st8" d="M309.01,98.02c2.96-2.43,6.44-3.76,10.08-4.73c5.29-1.42,10.66-2.43,16.1-2.93
			c8.99-0.83,17.63,0.83,25.7,4.76c10.3,5.03,18.15,12.75,23.32,23.02c3.34,6.62,5.01,13.65,4.52,21.12
			c-0.09,1.43-0.18,2.87-0.28,4.3c-0.04,0.69,0.27,1.09,0.96,1.15c1.72,0.13,3.42,0.34,5.08,0.9c3.39,1.13,6.56,2.68,9.47,4.76
			c4,2.85,7.59,6.15,10.77,9.9c1.68,1.98,3.11,4.13,4.32,6.43c3.66,6.95,5.12,14.4,5.05,22.19c-0.03,3.2-0.62,6.28-1.78,9.26
			c-0.73,1.88-1.6,3.69-2.62,5.43c-1.17,1.98-2.4,3.92-3.63,5.86c-0.95,1.51-0.96,1.5,0.2,2.95c0.12,0.15,0.24,0.3,0.37,0.44
			c3.29,3.81,5.79,8.1,7.76,12.72c1.46,3.44,2.77,6.95,3.68,10.58c0.3,1.2,0.95,1.77,2.13,1.98c1.62,0.3,3.23,0.45,4.86,0.24
			c8.39-1.06,14.43-5.28,17.75-13.18c2.35-5.59,3.94-11.41,5.39-17.27c1.17-4.75,1.8-9.6,2.13-14.49c0.05-0.76,0.17-1.52,0.3-2.28
			c0.37-2.31,2.68-3.23,4.56-2.28c3.76,1.89,7.65,3.54,11.46,5.34c1.47,0.69,2.89,1.5,4.31,2.29c2.13,1.19,3.15,3.12,3.14,5.46
			c-0.02,5.67-0.56,11.28-2.27,16.75c-1.67,5.33-3.97,10.38-6.53,15.32c-2.94,5.66-6.7,10.71-11.61,14.86
			c-3.15,2.66-6.45,5.13-9.82,7.51c-3.17,2.25-6.66,3.75-10.37,4.84c-4.1,1.21-8.29,1.52-12.52,1.22c-1.9-0.14-1.99,0.15-2.3,1.7
			c-0.19,0.94-0.39,1.88-0.6,2.81c-0.74,3.32-2.06,6.4-4.03,9.15c-4.76,6.65-10.76,11.41-19.22,12.32
			c-0.29,0.03-0.57,0.06-0.86,0.11c-1.26,0.23-1.47,0.37-1.5,1.67c-0.07,2.7-0.48,5.35-1.19,7.94c-1.11,4.07-2.15,8.16-3.39,12.19
			c-2.94,9.54-7.58,18-15.92,23.97c-0.74,0.53-0.74,0.8-0.2,1.69c0.89,1.5,2.05,2.78,3.4,3.87c1.64,1.32,3.27,2.67,4.98,3.89
			c6.12,4.38,12.75,7.33,20.46,7.45c5.01,0.08,9.96-0.08,14.79-1.59c2.2-0.69,4.41-1.32,6.6-2.02c2.83-0.91,5.66-1.78,8.43-2.86
			c1.94-0.76,3.4,0.16,3.9,2.16c0.05,0.19,0.08,0.38,0.1,0.57c0.16,1.83,0.7,3.57,1.2,5.32c1.24,4.33,2.5,8.66,3.74,12.99
			c0.21,0.73,0.46,1.47,0.53,2.23c0.18,1.73-0.61,2.99-2.21,3.63c-0.53,0.21-1.1,0.34-1.66,0.46c-2.16,0.43-4.32,0.92-6.49,1.24
			c-11.11,1.62-22.26,2.45-33.52,1.75c-9.55-0.6-18.78-2.42-27.79-5.65c-8.98-3.22-16.88-8.17-24.02-14.39
			c-6.41-5.59-11.65-12.17-15.75-19.65c-0.78-1.43-1.65-2.81-2.49-4.2c-0.25-0.42-0.57-0.78-1.22-0.75c-0.2,0.37-0.48,0.76-0.64,1.2
			c-1.6,4.34-3.96,8.29-6.29,12.26c-2.88,4.94-6.65,9.12-10.98,12.83c-3.03,2.6-6.43,4.48-10.15,5.87
			c-6.13,2.29-12.51,2.72-18.96,2.58c-1.72-0.04-3.45-0.16-5.13-0.61c-8.15-2.17-15.33-5.99-20.99-12.36
			c-4.42-4.98-8.05-10.49-10.67-16.63c-0.19-0.44-0.35-0.89-0.56-1.33c-0.49-1.05-0.89-1.18-1.67-0.42
			c-1.45,1.41-2.96,2.73-4.68,3.79c-5.21,3.2-10.86,4.65-16.97,4.58c-6.25-0.06-11.86-1.86-16.87-5.63
			c-2.77-2.09-5.43-4.28-7.49-7.09c-0.69-0.94-1.4-1.08-2.44-0.77c-1.75,0.51-3.57,0.69-5.39,0.76c-7.14,0.29-13.91-1.52-20.47-3.97
			c-6.71-2.51-12.55-6.55-17.79-11.43c-2.81-2.62-5.48-5.38-7.79-8.45c-0.91-1.21-1.82-2.24-3.52-1.82
			c-4.59-0.64-9.06-1.72-13.16-3.92c-3.46-1.85-6.89-3.79-10.12-6.03c-10.55-7.33-20.91-14.91-31.05-22.79
			c-4.7-3.65-9.19-7.54-13.25-11.9c-1.37-1.47-2.8-2.89-4.2-4.34c-5.06-5.25-9.91-10.69-14.24-16.56c-2.34-3.17-4.47-6.46-6.36-9.92
			c-1.04-1.9-0.86-3.67,0.33-5.4c0.49-0.71,1.08-1.36,1.47-2.12c2.06-4,4.77-7.65,6.64-11.76c0.4-0.88,0.97-1.65,1.74-2.26
			c2.08-1.64,4-1.23,5.13,1.16c0.57,1.21,1.02,2.48,1.56,3.71c4.46,10.08,11.02,18.59,19.38,25.74c4.81,4.11,10,7.74,15.15,11.42
			c3.9,2.79,8.09,5.13,12.52,7.02c0.77,0.33,1.51,0.84,2.44,0.63c0.02-0.11,0.06-0.2,0.05-0.29c-0.07-0.82-0.66-1.36-1.08-1.97
			c-7.39-10.89-9.87-22.93-8.26-35.87c0.17-1.37-0.22-2.12-1.26-2.87c-3.6-2.58-6.76-5.66-9.7-8.95c-3.13-3.51-6.18-7.08-9.29-10.59
			c-5.36-6.06-9.81-12.77-13.81-19.78c-4.25-7.44-7.13-15.48-9.95-23.54c-1.79-5.1-2.41-10.45-3.46-15.7
			c-0.38-1.89,0.28-3.37,1.78-4.54c2.72-2.12,5.41-4.28,8.12-6.42c1.03-0.81,2.19-1.13,3.5-1.01c2.07,0.19,3.22,1.41,2.88,3.45
			c-0.5,3.05,0.09,5.91,1.06,8.75c0.53,1.54,1.11,3.07,1.81,4.54c2.87,5.98,6.32,11.62,10.4,16.86c7.25,9.31,15.93,17.08,25.67,23.7
			c2.46,1.67,5,3.2,7.68,4.49c0.14,0.07,0.4,0.03,0.52-0.06c0.12-0.09,0.21-0.33,0.17-0.47c-0.34-1.4-0.74-2.78-1.05-4.18
			c-1.08-4.98-1.02-9.91,0.85-14.7c1.55-3.95,3.66-7.61,6.4-10.85c1.69-2,1.63-1.78,0.21-3.82c-5.02-7.19-9.03-14.91-12.08-23.14
			c-1.8-4.86-3.48-9.75-4.87-14.74c-3.07-10.99-5.67-22.09-7.54-33.35c-1.25-7.49-1.82-15.03-1.1-22.62
			c0.36-3.74,1.04-7.4,2.44-10.91c1.13-2.81,2.76-5.23,5.07-7.22c4.72-4.08,10.15-5.57,16.3-4.67c5.16,0.76,10.07,2.29,14.82,4.44
			c9.49,4.3,18,10.19,26.29,16.38c3.84,2.86,7.47,6,11.14,9.08c4.26,3.57,8.32,7.37,12.04,11.52c0.45,0.5,0.9,0.99,1.38,1.46
			c0.3,0.3,0.68,0.37,1.03,0.11c0.46-0.34,0.9-0.71,1.33-1.09c2.11-1.82,4.41-3.38,6.82-4.79c2.45-1.43,5.1-2.21,7.96-2.01
			c0.99,0.07,1.88-0.06,2.8-0.4c4.39-1.61,8.66-1.2,12.83,0.81c1.47,0.71,2.88,1.52,4.21,2.47c0.53,0.38,1.08,0.74,1.59,1.1
			c3.72-3.59,5.52-4.64,10.62-6.19c1.19-0.36,2.4-0.67,3.61-0.97c5.9-1.51,11.9-1.89,17.96-1.79c5.64,0.09,11.04,1.11,16.2,3.4
			c5.04,2.24,9.66,5.06,13.48,9.12c4.66,4.97,8.23,10.57,10.28,17.11c0.28,0.89,0.43,1.86,1.09,2.66
			C308.51,98.22,308.81,98.18,309.01,98.02z M132.21,167.19c-2.27,4.48-2.58,9.16-1.45,13.99c0.28,1.21,0.67,2.4,1,3.6
			c1.22,4.48,3.63,8.21,7.12,11.25c0.65,0.57,1.26,1.18,2.11,1.46c0.36,0.12,0.69,0.33,1.01,0.55c1.38,0.96,1.83,2.41,1.16,3.74
			c-0.65,1.3-1.8,1.77-3.4,1.36c-1.61-0.41-3.04-1.19-4.22-2.35c-1.43-1.41-2.82-2.87-4.19-4.34c-1.01-1.08-1-1.13-2.36-0.35
			c-4.92,2.82-8.64,6.86-10.57,12.12c-4.62,12.61-4.48,25.18,1.52,37.39c2.73,5.55,6.45,10.42,10.87,14.75
			c2.27,2.23,4.97,3.89,7.69,5.52c0.84,0.51,1.13,0.44,1.57-0.46c1.95-4,4.79-7.38,7.51-10.84c0.41-0.53,0.86-1.03,1.31-1.53
			c0.46-0.5,1.03-0.85,1.68-1.07c1.43-0.48,2.78-0.04,3.51,1.16c0.68,1.1,0.61,2.44-0.43,3.41c-2.12,1.98-3.7,4.39-5.47,6.65
			c-2.14,2.75-3.6,5.87-4.58,9.21c-0.63,2.14-0.86,4.32-0.61,6.54c0.75,6.48,2.69,12.52,6.49,17.91c3.72,5.27,7.82,10.18,12.7,14.42
			c4.38,3.8,9.27,6.78,14.63,8.98c2.58,1.06,5.36,1.47,8.03,2.23c2.51,0.72,5.06,1.07,7.65,1.17c1.73,0.06,3.45-0.03,5.15-0.34
			c0.7-0.13,0.95-0.57,0.64-1.28c-1.53-3.43-2.34-7.09-3.38-10.68c-0.21-0.74-0.38-1.49-0.53-2.24c-0.16-0.78-0.04-1.54,0.39-2.21
			c0.66-1.05,1.6-1.65,2.87-1.55c1.08,0.08,2.16,0.99,2.36,2.21c0.37,2.28,1.15,4.45,1.69,6.68c0.5,2.06,1.26,4.02,2.14,5.94
			c3.23,7.05,8.51,12.05,15.67,14.85c7.32,2.86,19.16,1.69,25.87-6.17c0.43-0.51,0.88-1.02,1.21-1.6c0.71-1.26,1.18-2.51,0.72-4.06
			c-0.54-1.83-0.81-3.74-1.15-5.63c-0.15-0.84-0.29-1.72-0.24-2.56c0.1-1.53,1.35-2.72,2.78-2.82c1.49-0.1,2.65,0.87,2.89,2.59
			c0.67,4.75,1.69,9.43,3.1,14.01c2.53,8.24,6.97,15.39,13.11,21.34c5.43,5.26,12.03,8.54,19.69,9.14c4.8,0.38,9.56-0.08,14.26-1.21
			c6.92-1.67,12.19-5.83,16.75-11.06c1.64-1.88,3.06-3.93,4.34-6.08c2.06-3.46,4.03-6.95,5.63-10.66c1.22-2.85,1.4-5.74,1-8.73
			c-0.13-0.96-0.31-1.89,0-2.84c0.39-1.18,1.11-2.01,2.39-2.21c1.26-0.2,2.44,0.38,2.94,1.78c0.54,1.53,1.59,2.58,2.71,3.64
			c3.15,2.99,6.58,5.58,10.62,7.25c2.93,1.22,5.97,2.07,9.09,2.64c3.97,0.72,7.98,1.06,12.02,0.74c5.18-0.41,9.61-2.43,13.25-6.16
			c3.81-3.9,6.39-8.58,8.51-13.54c1.17-2.75,1.78-5.67,2.63-8.51c0.88-2.94,1.62-5.91,2.44-8.87c0.54-1.96,0.53-3.98,0.69-5.99
			c0.06-0.74-0.4-1.25-0.64-1.86c-0.68-1.72,0.02-3.29,1.76-3.91c0.62-0.22,1.3-0.3,1.96-0.41c1.99-0.32,3.97-0.63,5.97-0.92
			c2.42-0.35,4.59-1.28,6.6-2.67c5.59-3.9,9.19-9.06,10.53-15.84c1.62-8.19,1.93-16.37,0.03-24.53c-1.69-7.24-4.29-14.12-8.66-20.22
			c-0.93-1.3-1.79-2.71-3.26-3.61c-0.68,0.5-1.26,0.98-1.9,1.4c-0.57,0.37-1.21,0.56-1.91,0.49c-1.14-0.12-2-0.63-2.46-1.7
			c-0.46-1.08-0.37-2.21,0.54-2.9c1.94-1.46,2.85-3.84,4.87-5.21c0.38-0.26,0.65-0.7,0.92-1.09c2.52-3.63,4.78-7.4,6.31-11.57
			c0.87-2.39,1.05-4.88,0.99-7.37c-0.11-5.41-1.03-10.67-3.2-15.67c-1.46-3.38-3.4-6.44-5.9-9.14c-2.74-2.96-5.7-5.68-9.03-7.97
			c-1.91-1.31-3.97-2.32-6.11-3.18c-1.06-0.43-2.2-0.7-3.32-0.9c-2.66-0.46-3.23-0.07-3.69,2.53c-0.35,1.98-0.62,3.98-0.86,5.97
			c-0.09,0.77-0.17,1.52-0.66,2.16c-0.77,1-1.77,1.5-3.01,1.23c-1.24-0.27-1.96-1.15-2.18-2.4c-0.17-0.96-0.04-1.91,0.13-2.86
			c0.36-1.98,0.68-3.97,1.05-5.95c0.87-4.63,1.34-9.3,1.43-14c0.12-6.78-1.76-13.08-5.16-18.91c-4.67-7.99-11.22-14.01-19.46-18.2
			c-3.89-1.98-8.11-2.9-12.35-3.7c-3.98-0.76-8-0.88-12.02-0.29c-5.21,0.76-10.43,1.53-15.46,3.19c-1,0.33-1.97,0.74-2.94,1.16
			c-1.98,0.86-3.58,2.19-4.78,4.01c-0.42,0.64-0.84,1.3-1.38,1.83c-1.49,1.48-3.82,1.29-4.99-0.46c-0.52-0.78-0.85-1.72-1.13-2.62
			c-0.61-1.92-1.11-3.87-1.7-5.79c-1.94-6.28-5.4-11.64-10.15-16.13c-5.31-5-11.67-8.08-18.86-9.11
			c-9.24-1.33-18.35-0.45-27.22,2.59c-1.46,0.5-2.85,1.13-4.09,2.06c-1.71,1.29-2.1,2.65-1.02,4.48c2.84,4.82,3.66,10.02,3.08,15.51
			c-0.1,0.95-0.12,1.91-0.21,2.87c-0.07,0.74,0.31,1.04,0.98,1.11c4.7,0.47,7.86,3.29,10.43,6.92c3.25,4.6,4.26,9.77,3.53,15.31
			c-1.3,9.81-5.57,18.25-12,25.66c-1.13,1.3-2.36,2.51-3.55,3.77c-0.31,0.33-0.76,0.59-0.7,1.17c0.69,0.41,1.48,0.32,2.23,0.34
			c5.94,0.18,11.26,2.13,15.98,5.7c3.26,2.47,5.79,5.57,7.56,9.28c1.39,2.91,2.04,6.01,1.81,9.21c-0.46,6.24-3.72,10.77-9.04,13.83
			c-3.12,1.79-6.58,1.93-10.07,1.41c-3.83-0.57-7.45-1.8-10.86-3.61c-6.29-3.35-11.5-7.91-15.56-13.78
			c-0.49-0.71-0.95-1.44-1.45-2.15c-0.47-0.67-0.82-0.71-1.35-0.12c-1.86,2.07-3.84,4.02-5.94,5.84c-2.05,1.78-4.3,3.24-6.86,4.13
			c-6.09,2.13-12.32,3.63-18.84,3.46c-5.3-0.14-10.46-1.07-15.52-2.73c-6.42-2.1-12.51-4.9-17.93-8.93
			c-5.93-4.4-11.56-9.17-16.65-14.55c-0.58-0.62-1.03-1.4-1.99-1.74C135.2,161.64,133.64,164.37,132.21,167.19z M158.57,170.39
			c5.12,3.8,10.77,6.57,16.81,8.59c5.23,1.75,10.59,2.7,16.1,2.54c5.41-0.16,10.62-1.43,15.64-3.41c0.97-0.38,1.9-0.94,2.74-1.56
			c2.95-2.17,5.56-4.7,7.8-7.59c0.89-1.15,1.55-2.41,1.96-3.81c0.18-0.62,0.07-1.13-0.48-1.5c-0.32-0.21-0.66-0.39-0.97-0.61
			c-3.97-2.81-5.85-6.71-6.02-11.51c-0.11-3,0.34-5.94,1.16-8.8c1-3.51,2.37-6.89,4.41-9.94c0.79-1.18,1.74-2.25,2.67-3.45
			c-0.82-0.4-1.51-0.72-2.19-1.06c-5.76-2.87-8.9-7.48-8.84-13.95c0.02-2.6-0.61-4.88-1.72-7.14c-3.46-7.08-7.5-13.82-12.08-20.22
			c-2.96-4.14-6.5-7.81-10.22-11.27C175,66.06,163.92,57.41,151.81,50.1c-4.77-2.88-9.79-5.26-15.1-6.96
			c-3.29-1.06-6.67-1.84-10.17-1.63c-5.47,0.34-9.39,3.08-11.65,8.03c-1.32,2.89-1.88,6-2.19,9.18c-0.75,7.5-0.16,14.92,1.12,22.31
			c2.17,12.57,5.03,24.98,8.82,37.16c1.45,4.67,3.12,9.26,5,13.78c2.18,5.24,4.87,10.2,8.01,14.92c0.9,1.35,1.73,2.74,3.15,3.67
			c0.54,0.35,0.88,1,1.31,1.51c0.86,1.03,1.7,2.08,2.59,3.08c0.96,1.08,1.98,2.11,3.26,2.79c3.55,1.9,7.1,3.78,11.03,4.8
			c1.3,0.34,2.62,0.55,3.97,0.61c4.34,0.19,7.91-2.04,9.48-6.06c1.34-3.46,1.93-7.01,1.05-10.7c-0.18-0.74-0.28-1.52-0.24-2.27
			c0.07-1.25,0.92-2.2,2.05-2.48c1.23-0.31,2.51,0.25,3.12,1.47c0.3,0.59,0.47,1.25,0.63,1.9c1.38,5.77,0.51,11.27-2.34,16.39
			c-2.87,5.17-7.59,7.36-13.34,7.55c-1.3,0.04-2.6-0.09-3.93-0.14C157.57,169.81,158.12,170.06,158.57,170.39z M200.87,83.83
			c0.13,0.39,0.16,0.7,0.31,0.93c4.08,6.25,7.95,12.61,11.44,19.42c1.07-0.73,1.51-1.69,2.15-2.46c0.56-0.66,1.03-1.4,1.83-1.8
			c1-0.5,2.01-0.63,2.98,0.11c0.98,0.74,1.34,1.83,1.01,3.06c-0.2,0.76-0.7,1.35-1.15,1.97c-1.2,1.61-2.43,3.2-3.42,4.96
			c-2.01,3.55-1.23,9.4,3.38,12.39c3.1,2.02,7.45,1.62,10.41-0.9c0.58-0.5,1.06-1.11,1.67-1.57c1.06-0.81,2.52-0.74,3.45,0.07
			c0.95,0.82,1.28,2.26,0.72,3.41c-0.52,1.05-1.32,1.88-2.22,2.6c-1.75,1.38-3.66,2.44-5.85,2.95c-0.72,0.17-1.17,0.5-1.14,1.37
			c0.05,1.15-0.72,1.95-1.46,2.7c-4.02,4.05-5.83,9.13-6.86,14.58c-0.29,1.52-0.28,3.06-0.16,4.58c0.17,2.18,1.05,4.06,2.72,5.53
			c0.84,0.73,1.77,1.04,2.91,0.84c1.15-0.2,2.23-0.56,3.22-1.15c10.99-6.61,19.57-15.34,23.95-27.65c1.25-3.52,2.04-7.2,1.78-11
			c-0.3-4.33-2.09-7.93-5.52-10.63c-2.44-1.93-4.64-1.84-7,0.18c-0.29,0.25-0.52,0.57-0.83,0.8c-1.22,0.91-2.67,0.93-3.71,0.08
			c-1.17-0.95-1.53-2.55-0.58-3.86c0.93-1.27,1.66-2.6,2.01-4.09c1.81-7.67,1.37-14.88-4.68-20.77c-2.29-2.24-4.95-3.93-8.11-4.68
			c-4.73-1.13-8.57,0.71-10.67,5.08c-0.97,2.04-1.25,4.18-1.15,6.42c0.17,3.69,2.86,4.54,5.83,4.09c0.55-0.08,1.1-0.35,1.6-0.62
			c1.62-0.88,2.09-1.93,1.76-3.82c-0.18-1.05-0.62-2-0.99-2.99c-0.68-1.82,0.11-3.4,1.81-3.87c0.9-0.25,1.73-0.12,2.41,0.51
			c0.42,0.38,0.85,0.81,1.1,1.31c1.13,2.26,1.77,4.65,1.47,7.21c-0.3,2.52-1.56,4.49-3.62,5.95c-3.58,2.53-7.44,2.87-11.47,1.27
			c-2.33-0.93-3.96-2.62-4.84-5.01c-0.92-2.49-1.02-5.05-0.66-7.64c0.22-1.61,0.55-3.2,1.02-4.86
			C205.02,80.02,202.81,81.76,200.87,83.83z M71.78,231.82c-1.12,2.01-2.21,4.03-3.52,5.92c-0.93,1.35-0.91,1.53,0.12,2.75
			c3.14,3.74,6.53,7.27,9.82,10.88c7.92,8.68,17.05,15.95,26.51,22.84c6.81,4.96,13.5,10.1,20.51,14.77
			c3.03,2.01,6.18,3.84,9.35,5.62c2.09,1.18,4.38,1.93,6.7,2.52c0.35,0.09,0.72,0.24,1.07-0.06c0.29-0.63-0.18-1.08-0.43-1.56
			c-2.4-4.65-3.75-9.61-4.54-14.76c-0.38-2.49-0.24-4.97,0.01-7.45c0.09-0.85-0.03-1.41-0.85-1.88c-2.99-1.72-5.89-3.58-8.55-5.8
			c-0.29-0.24-0.63-0.49-0.98-0.57c-2.25-0.5-4.29-1.67-6.6-1.95c-1.24-0.15-2.4-0.61-3.57-1.06c-5.39-2.08-10.46-4.79-15.17-8.09
			c-5.57-3.9-11.06-7.92-16.32-12.23c-3.72-3.06-6.94-6.59-10-10.28c-0.6-0.72-1.01-1.65-1.99-1.99
			C72.54,230.05,72.23,230.99,71.78,231.82z M345.33,335.69c3.62,5.69,7.85,10.89,13,15.26c6.54,5.55,13.68,10.09,21.84,13
			c6.17,2.2,12.44,3.94,18.92,4.7c7.99,0.93,16.03,1.29,24.08,0.59c1.14-0.1,2.29-0.17,3.43-0.29c0.77-0.08,1.03-0.41,0.96-1.1
			c-0.02-0.19-0.06-0.38-0.09-0.57c-0.63-3.48-1.26-6.97-1.91-10.45c-0.17-0.94-0.47-1.17-1.37-0.95
			c-5.66,1.36-11.4,1.28-17.14,0.84c-2.77-0.21-5.47-0.83-8.11-1.79c-6.96-2.52-12.9-6.65-18.41-11.49
			c-1.67-1.47-2.94-3.27-4.1-5.15c-0.67-1.08-0.72-1.11-1.82-0.81c-5.2,1.39-10.45,1.12-15.69,0.45c-4.57-0.59-9.04-1.65-13.29-3.53
			c-0.22-0.1-0.51-0.05-0.76-0.07C344.75,334.92,345.08,335.3,345.33,335.69z M74.49,149.36c-0.31,0.34-0.52,0.8-0.68,1.24
			c-0.16,0.45-0.08,1.01-0.32,1.39c-1.06,1.67-0.48,3.21,0.11,4.87c4.02,11.52,9.87,22.04,17.44,31.56
			c4.71,5.93,9.74,11.59,14.98,17.06c1.59,1.66,3.31,3.17,5.35,4.66c0.99-2.32,1.84-4.53,2.85-6.65c1.03-2.17,2.54-4.05,4.1-5.88
			c1.55-1.82,3.29-3.46,5.13-4.91c-0.31-0.87-0.99-1.04-1.55-1.35c-13.24-7.34-24.49-17.04-33.97-28.82
			c-3.62-4.5-6.6-9.41-9.45-14.41c-0.33-0.57-0.52-1.25-1.25-1.66C76.32,147.43,75.38,148.37,74.49,149.36z M429.92,252.91
			c0.01,0.76-0.07,1.53-0.09,2.3c-0.02,1.04,0.24,1.36,1.32,1.45c6.59,0.5,12.8-0.78,18.4-4.35c3.88-2.48,7.52-5.3,10.98-8.34
			c4.01-3.52,7.11-7.76,9.57-12.47c1.73-3.31,3.35-6.67,4.7-10.16c0.76-1.96,0.79-2.06-1.09-3.19c-2.13-1.28-4.33-2.45-6.51-3.65
			c-1.09-0.6-2.19-1.19-3.3-1.74c-0.51-0.25-0.95-0.07-1.12,0.49c-0.58,1.92-1.19,3.84-1.7,5.79c-0.74,2.79-1.76,5.47-2.86,8.12
			c-4.37,10.52-12.44,15.92-23.59,17.02c-1.59,0.16-3.22,0.02-4.86,0.02C429.83,247.2,429.89,250.05,429.92,252.91z M232.36,163.12
			c3.98,0.8,7.7,2.31,11.26,4.21c3,1.6,5.34,4.02,7.58,6.53c0.59,0.66,0.95,1.44,1.05,2.32c0.13,1.18-0.49,2.29-1.56,2.83
			c-1.1,0.55-2.26,0.39-3.15-0.54c-1.06-1.1-2.05-2.27-3.11-3.38c-0.93-0.97-1.96-1.84-3.14-2.49c-3.37-1.85-6.9-3.33-10.72-3.96
			c-0.57-0.09-1.15-0.23-1.71-0.19c-0.74,0.05-1.69-0.15-2.15,0.47c-0.55,0.76,0.29,1.43,0.67,2.02
			c4.78,7.66,11.34,13.15,19.96,16.03c2.28,0.76,4.64,1.2,7.07,1c1.16-0.09,2.32-0.29,3.3-0.89c3.85-2.36,6.19-5.64,6-10.37
			c-0.18-4.4-2.33-7.86-5.35-10.8c-3.77-3.67-8.39-5.66-13.64-6.03c-3.45-0.25-6.88-0.01-10.3,0.58c-1.54,0.26-2.97,0.73-4.4,1.91
			C230.86,163.03,231.65,162.98,232.36,163.12z"/>
		<path class="st8" d="M337.55,240.41c0.46-1.55,0.44-3.28,0.53-5c0.03-0.66,0.33-1.07,1.03-1.12c1.05-0.08,2.1-0.16,3.15-0.26
			c2.41-0.23,4.7-0.92,6.84-2.04c2.76-1.44,4.69-3.63,5.64-6.6c2.72-8.52,0.66-15.89-5.6-22.11c-2.52-2.5-5.75-3.76-9.24-4.3
			c-0.55-0.08-1.15-0.06-1.7,0.07c-1.18,0.26-2.04,1.28-2.14,2.41c-0.11,1.13,0.54,2.32,1.64,2.79c0.61,0.26,1.28,0.4,1.94,0.53
			c7.35,1.44,11,9.17,10.44,14.89c-0.09,0.95-0.31,1.89-0.48,2.83c-0.46,2.5-2.03,4.06-4.33,4.94c-2.56,0.97-5.21,1.19-7.92,0.92
			c-0.86-0.09-1.72-0.27-2.57-0.23c-2.23,0.1-3.67,1.74-3.07,3.86c1.37,4.86,0.01,9.35-1.81,13.68c-2.39,5.68-7.05,8.92-12.86,10.55
			c-2.32,0.65-4.74,0.66-7.14,0.58c-1.16-0.04-2.27-0.32-3.33-0.81c-6.92-3.17-10.89-8.59-12.1-16.02
			c-0.65-3.98-0.67-8.01-0.61-12.04c0.01-0.96,0.1-1.91,0.54-2.8c0.17-0.34,0.32-0.7,0.4-1.07c0.25-1.18-0.27-2.39-1.27-2.97
			c-1.01-0.58-2.02-0.51-2.99,0.1c-0.66,0.42-1.17,0.99-1.51,1.69c-0.47,0.96-0.76,1.96-0.82,3.03c-0.27,5.28-0.21,10.56,0.73,15.75
			c1.47,8.09,5.8,14.27,12.95,18.43c2.97,1.73,6.13,2.51,9.59,2.54c7.28,0.05,13.47-2.43,18.74-7.42c2.49-2.36,4.33-5.12,5.5-8.31
			C336.44,244.82,337.18,242.73,337.55,240.41z"/>
		<path class="st8" d="M218.06,282.83c0.74,0.39,0.99,1.04,1.38,1.57c2.21,2.93,5.05,4.94,8.57,5.96c4.32,1.24,8.17,0.37,11.44-2.72
			c2.21-2.09,3.64-4.65,4.3-7.64c0.57-2.57,0.55-5.14,0.2-7.71c-0.18-1.35-0.63-2.61-1.53-3.66c-1.1-1.28-2.57-1.54-3.85-0.73
			c-1.15,0.73-1.67,2.11-0.97,3.52c0.86,1.73,0.86,3.52,0.81,5.33c-0.07,2.59-1.05,4.84-2.89,6.69c-1.3,1.31-2.86,1.86-4.71,1.56
			c-3.7-0.59-6.31-2.62-7.83-6.03c-0.54-1.22-0.88-2.53-1.41-3.76c-0.45-1.05-1.32-1.61-2.5-1.61c-1.05,0-1.83,0.49-2.39,1.35
			c-0.15,0.24-0.24,0.52-0.33,0.79c-0.48,1.49-1.61,2.31-2.97,2.94c-7.58,3.51-14.76,2.01-20.77-4.61
			c-4.54-4.99-5.47-11.01-3.84-17.48c0.9-3.56,2.73-6.51,5.85-8.56c0.48-0.32,0.9-0.72,1.11-1.28c0.41-1.06,0.37-2.08-0.41-2.96
			c-0.85-0.96-1.95-1.17-3.14-0.82c-1.23,0.36-2.19,1.14-3.09,2.03c-2.78,2.75-4.89,5.91-5.84,9.73
			c-2.47,9.95-0.32,18.61,7.43,25.58c2.81,2.53,6.12,4.32,9.75,5.35c3.87,1.1,7.78,0.8,11.62-0.34c1.74-0.52,3.46-1.14,5.04-2.07
			C217.42,283.06,217.79,282.95,218.06,282.83z"/>
		<path class="st8" d="M329.12,142.48c0.86-4.1,0.27-8.08-2.33-11.61c-4-5.4-9.26-8.13-16.11-7.44c-4.49,0.45-8.59,1.84-12.17,4.64
			c-1.06,0.83-2.06,1.71-2.83,2.83c-0.5,0.73-0.8,1.52-0.91,2.39c-0.14,1.17,0.35,2.04,1.33,2.65c1.02,0.64,2.02,0.47,2.97-0.13
			c0.31-0.2,0.6-0.49,0.79-0.81c1.31-2.15,3.37-3.37,5.55-4.38c2.47-1.15,5.13-1.58,7.83-1.46c4.43,0.2,7.48,2.61,9.6,6.34
			c0.72,1.28,0.98,2.68,0.81,4.16c-0.23,2.02-0.8,3.93-1.59,5.79c-0.22,0.53-0.52,1.02-0.75,1.55c-1.13,2.64,0.54,4.83,3.44,4.49
			c0.85-0.1,1.69-0.33,2.54-0.46c2.98-0.45,5.72,0.29,8.19,1.93c2.68,1.78,3.11,4.22,1.33,6.93c-3.34,5.09-8.08,7.73-14.14,8.06
			c-0.48,0.03-0.96-0.04-1.43,0.03c-1.5,0.21-2.52,1.27-2.6,2.62c-0.08,1.36,0.81,2.56,2.27,2.9c0.74,0.17,1.52,0.26,2.28,0.21
			c6.27-0.44,11.73-2.67,15.94-7.47c1.13-1.29,2.2-2.67,3.08-4.14c2.51-4.18,1.78-9.21-1.76-12.57c-0.82-0.78-1.78-1.47-2.77-2.02
			c-2.54-1.4-5.22-2.37-8.17-2.42c-0.86-0.01-1.02-0.29-0.82-1.09c0.07-0.28,0.18-0.55,0.26-0.82
			C328.99,142.98,329.03,142.79,329.12,142.48z"/>
		<path class="st8" d="M165.24,213.99c-0.51,3.36-0.37,6.7,0.59,9.96c1.76,5.97,7.31,10.45,13.51,10.82
			c4.73,0.28,8.54-1.72,11.54-5.34c1.11-1.34,1.82-2.92,2.57-4.47c0.31-0.64,0.74-0.82,1.38-0.55c0.88,0.37,1.76,0.75,2.64,1.13
			c2.11,0.89,4.29,0.96,6.49,0.52c4.92-0.97,8.84-3.58,11.85-7.54c1.29-1.7,2.15-3.63,2.46-5.76c0.77-5.28,0.3-10.32-2.93-14.82
			c-0.74-1.02-1.59-1.91-2.68-2.56c-0.78-0.46-1.59-0.63-2.48-0.43c-1.12,0.26-1.9,0.91-2.23,2.01c-0.33,1.12-0.04,2.17,0.88,2.84
			c4.46,3.21,4.23,7.79,3.66,12.45c-0.17,1.35-0.96,2.5-1.84,3.53c-1.58,1.86-3.54,3.2-5.81,4.1c-3.42,1.37-6.38,0.34-9.1-1.78
			c-0.68-0.53-1.25-1.17-2.11-1.45c-2.19-0.7-3.8,0.08-4.51,2.25c-0.21,0.63-0.31,1.3-0.45,1.96c-0.32,1.52-0.95,2.92-1.77,4.22
			c-2.75,4.37-8.21,5.25-12.2,1.97c-1.99-1.64-3.38-3.68-3.68-6.29c-0.17-1.52-0.31-3.06-0.24-4.58c0.09-1.94,0.67-3.77,2-5.27
			c0.19-0.21,0.4-0.42,0.55-0.66c0.67-1.04,0.62-2.27-0.09-3.23c-0.78-1.05-2.05-1.4-3.34-0.9c-1.33,0.51-2.22,1.52-2.83,2.74
			C166.24,210.49,165.51,212.16,165.24,213.99z"/>
		<path class="st8" d="M269.27,88.25c-3.09-0.38-6.13-0.2-9.15,0.45c-0.55,0.12-1.1,0.36-1.58,0.66c-1.18,0.73-1.67,2.3-1.16,3.52
			c0.49,1.19,1.67,1.93,3.02,1.63c1.79-0.39,3.61-0.41,5.4-0.66c4.41-0.6,8.1,3.13,7.96,7.7c-0.11,3.63-1.3,6.52-4.51,8.41
			c-0.41,0.24-0.83,0.49-1.19,0.8c-1.03,0.89-1.32,2.25-0.75,3.37c0.63,1.24,2.05,1.9,3.4,1.41c2.2-0.8,4.12-2.11,5.51-3.99
			c3.51-4.73,4.31-9.98,2.28-15.49C276.93,91.79,273.65,89.3,269.27,88.25z"/>
		<path class="st8" d="M278.48,300.35c3.63,0.6,7.02-0.35,9.89-2.99c2-1.84,3.01-4.19,3.1-6.89c0.07-2.13-0.34-4.2-1.33-6.11
			c-0.31-0.59-0.67-1.17-1.11-1.66c-0.9-1-2.33-1.22-3.4-0.63c-1.28,0.71-1.79,2-1.31,3.42c0.15,0.45,0.43,0.86,0.59,1.31
			c0.25,0.72,0.54,1.44,0.67,2.18c0.54,3.26-1.78,5.87-5.12,5.68c-3.15-0.18-5.68-1.62-7.5-4.2c-0.94-1.33-1.67-2.77-2.17-4.35
			c-0.48-1.55-1.72-2.24-3.05-1.98c-1.4,0.27-2.31,1.31-2.43,2.82c-0.03,0.38,0.01,0.76,0.05,1.14c0.02,0.19,0.07,0.38,0.14,0.56
			C267.84,294.62,271.76,298.89,278.48,300.35z"/>
		<path class="st8" d="M379.45,270.62c0.23-1.54,0.43-3.16,0.07-4.78c-0.26-1.14-0.69-2.19-1.6-2.98c-1.08-0.94-2.64-1.04-3.71-0.25
			c-1.08,0.79-1.52,1.95-0.9,3.3c1.35,2.97,0.22,5.37-1.48,7.7c-0.6,0.82-1.42,1.23-2.42,1.38c-3.81,0.54-6.73-0.89-8.88-4
			c-0.27-0.39-0.44-0.86-0.74-1.22c-0.73-0.9-1.69-1.24-2.82-0.92c-1.11,0.31-1.81,1.08-2.03,2.2c-0.21,1.07-0.01,2.11,0.62,3.02
			c3.81,5.51,9.67,8.07,16.53,6.23c1.52-0.41,2.72-1.36,3.77-2.51C377.6,275.85,378.92,273.26,379.45,270.62z"/>
		<path class="st8" d="M375.94,178.35c-2.08-0.44-4.18-0.49-6.29-0.49c-1.45,0-2.88,0.2-4.18,0.88c-1.08,0.57-1.81,1.44-1.78,2.72
			c0.03,1.76,1.51,3.03,3.35,2.63c1.62-0.35,3.22-0.51,4.84-0.39c1.52,0.11,3.06,0.28,4.54,0.63c2.01,0.49,3.36,1.77,3.76,3.88
			c0.15,0.79,0.1,1.53-0.68,2.03c-0.32,0.21-0.65,0.44-0.87,0.74c-0.7,0.9-0.88,1.91-0.36,2.96c0.51,1.03,1.36,1.62,2.51,1.65
			c1.3,0.03,2.46-0.43,3.35-1.39c1.14-1.23,1.83-2.68,1.93-4.37c0.31-5.35-3.17-9.97-8.41-11.14
			C377.07,178.56,376.5,178.46,375.94,178.35z"/>
		<path class="st8" d="M257.77,232.61c0.78-4.1-1.84-8.3-5.49-9.29c-2.07-0.56-3.75,0.58-3.82,2.61c-0.03,0.94,0.36,1.66,1.09,2.21
			c0.68,0.52,1.42,0.97,2.05,1.54c0.7,0.64,0.74,1.56,0.22,2.34c-0.49,0.73-1.14,1.29-2,1.55c-1,0.3-2.01,0.58-3.03,0.83
			c-0.46,0.11-0.96,0.06-1.41,0.2c-0.97,0.31-1.64,0.96-1.87,1.98c-0.26,1.13,0.1,2.08,0.96,2.82c0.51,0.44,1.12,0.71,1.81,0.79
			c3.86,0.43,9.32-2.56,10.96-6.05C257.52,233.54,257.68,232.88,257.77,232.61z"/>
		<path class="st8" d="M295.5,327.24c-0.32,1.96-1.78,2.91-3.7,2.21c-1.42-0.51-2.88-1.08-3.91-2.31c-0.24-0.29-0.5-0.59-0.8-0.82
			c-1-0.79-2.16-0.83-3.2-0.16c-1.05,0.68-1.47,1.72-1.23,2.97c0.23,1.2,0.89,2.13,1.81,2.85c1.9,1.49,4.01,2.64,6.36,3.22
			c4.14,1.01,8.41-1.06,10.09-4.74c0.64-1.41,0.6-2.79,0.12-4.19c-0.5-1.44-1.75-2.23-3.08-2.06c-1.33,0.17-2.1,0.96-2.4,2.46
			C295.52,326.86,295.52,327.05,295.5,327.24z"/>
		<path class="st8" d="M307.75,190.11c0.5-3.29-0.23-5.96-2.23-8.26c-0.97-1.12-2.24-1.78-3.71-1.98c-1.61-0.22-3,0.55-3.49,1.88
			c-0.48,1.32,0.14,2.66,1.69,3.49c0.59,0.31,1.26,0.47,1.61,1.11c0.63,1.17,0.79,2.35,0,3.51c-0.76,1.11-1.67,2.09-2.75,2.89
			c-0.46,0.34-0.97,0.63-1.38,1.02c-0.95,0.9-1.17,2.34-0.58,3.41c0.59,1.06,1.94,1.67,3.19,1.35c0.54-0.14,1.09-0.39,1.56-0.7
			c2.26-1.51,4.08-3.45,5.37-5.84C307.4,191.33,307.58,190.57,307.75,190.11z"/>
		<path class="st8" d="M188.72,127.86c-0.67,4.1,0.24,7.6,2.76,10.67c0.49,0.59,1.03,1.13,1.58,1.67c1.53,1.48,1.54,1.47,0.49,3.19
			c-0.25,0.41-0.54,0.8-0.7,1.24c-0.46,1.26-0.03,2.56,1.02,3.31c1.14,0.81,2.65,0.7,3.7-0.29c0.28-0.26,0.5-0.58,0.72-0.89
			c0.66-0.94,1.32-1.88,1.97-2.83c1.58-2.3,1.32-4.25-0.83-6.04c-0.66-0.55-1.38-1.03-2.04-1.58c-2.97-2.49-3.69-5.03-2.49-8.7
			c0.6-1.84,1.39-3.56,2.73-5c0.45-0.49,0.85-1.04,0.98-1.73c0.37-2-1.74-3.8-3.66-3.1c-1.12,0.41-1.91,1.25-2.61,2.18
			C190.51,122.39,189.56,125.19,188.72,127.86z"/>
		<path class="st8" d="M183.26,101.94c-0.69,3.68,0.19,6.28,2.29,8.51c0.75,0.8,1.68,1.24,2.78,1.28c1.18,0.04,2.25-0.62,2.74-1.7
			c0.48-1.07,0.27-2.04-0.43-2.93c-0.12-0.15-0.26-0.29-0.41-0.39c-1.78-1.24-1.62-2.83-0.84-4.55c0.43-0.97,0.98-1.84,1.65-2.66
			c0.36-0.44,0.74-0.89,0.98-1.39c0.51-1.06,0.21-2.37-0.65-3.14c-0.86-0.76-1.86-0.98-2.92-0.53c-0.51,0.22-1.02,0.56-1.4,0.96
			C185.06,97.4,183.84,99.85,183.26,101.94z"/>
		<path class="st8" d="M129.8,51.93c0.36-1.72-0.69-3.39-2.29-3.66c-1.52-0.26-3.04,0.84-3.34,2.39c-0.32,1.67,0.78,3.42,2.32,3.7
			C127.99,54.62,129.46,53.55,129.8,51.93z"/>
	</g>
</g>
</svg>
